# xmcd CD database file
#
# Track frame offsets:
#	150
#	8779
#	39517
#	76275
#	117139
#	140312
#	173430
#	197473
#	216516
#	248155
#	285638
#	304952
#	330398
#
# Disc length: 4519 seconds
#
# Revision: 0
# Processed by: cddbd v1.5.2PL0 Copyright (c) Steve Scherf et al.
# Submitted via: CDex 1.70beta2
#
DISCID=a911a50d
DTITLE=Guerrero Jazz - Mi Sentimiento Guerrerense
DYEAR=2013
DGENRE=Jazz
TTITLE0=Opening
TTITLE1=Nieve de Jazz
TTITLE2=Karol
TTITLE3=Acapulqueña
TTITLE4=Karen
TTITLE5=Ixtapa Zihuatanejo
TTITLE6=Chilpancingo
TTITLE7=Corazon Sureño
TTITLE8=Mi Sentimiento Guerrerense
TTITLE9=La San Marqueña
TTITLE10=Fiesta Acapulqueña
TTITLE11=Por los caminos del Sur
TTITLE12=Opening (decima)
EXTD=YEAR: 2013
EXTT0=
EXTT1=
EXTT2=
EXTT3=
EXTT4=
EXTT5=
EXTT6=
EXTT7=
EXTT8=
EXTT9=
EXTT10=
EXTT11=
EXTT12=
PLAYORDER=
